# This file uses centimeters as units for non-parametric coordinates.

mtllib crate.mtl
g default
v -5.670649 0.973093 5.670649
v 5.670649 0.973093 5.670649
v -5.670649 12.314390 5.670649
v 5.670649 12.314390 5.670649
v -5.670649 12.314390 -5.670649
v 5.670649 12.314390 -5.670649
v -5.670649 0.973093 -5.670649
v 5.670649 0.973093 -5.670649
v -4.396375 12.314390 4.396375
v 4.396375 12.314390 4.396375
v 4.396375 12.314390 -4.396375
v -4.396375 12.314390 -4.396375
v -4.396375 0.973094 -4.396375
v 4.396375 0.973094 -4.396375
v 4.396375 0.973094 4.396375
v -4.396375 0.973094 4.396375
v -4.396375 11.743270 4.396375
v 4.396375 11.743270 4.396375
v 4.396375 11.743270 -4.396375
v -4.396375 11.743270 -4.396375
v -4.396375 1.544215 -4.396375
v 4.396375 1.544215 -4.396375
v 4.396375 1.544215 4.396375
v -4.396375 1.544215 4.396375
vt 0.224217 0.701201
vt 0.224217 0.149636
vt 0.775783 0.149636
vt 0.775783 0.701201
vt 0.775783 0.149636
vt 0.775783 0.701201
vt 0.224217 0.701201
vt 0.224217 0.149636
vt 0.018672 0.981328
vt 0.018671 0.018672
vt 0.126833 0.126832
vt 0.126833 0.873167
vt 0.981328 0.018672
vt 0.873167 0.126832
vt 0.981329 0.981328
vt 0.873167 0.873167
vt 0.981328 0.981328
vt 0.018672 0.981328
vt 0.126833 0.873167
vt 0.873167 0.873167
vt 0.018672 0.018671
vt 0.126833 0.126833
vt 0.981328 0.018671
vt 0.873167 0.126833
vt 0.848164 0.764124
vt 0.158898 0.764124
vt 0.158898 0.719353
vt 0.848165 0.719353
vt 0.158898 0.719353
vt 0.848165 0.719353
vt 0.848165 0.764124
vt 0.158898 0.764124
vt 0.158898 0.719353
vt 0.848165 0.719353
vt 0.848165 0.764124
vt 0.158898 0.764123
vt 0.848164 0.764123
vt 0.158898 0.764123
vt 0.158899 0.719353
vt 0.848165 0.719353
vt 0.848165 0.833848
vt 0.158898 0.833848
vt 0.158898 0.789077
vt 0.848164 0.789077
vt 0.158898 0.789077
vt 0.848165 0.789077
vt 0.848165 0.833847
vt 0.158898 0.833848
vt 0.848165 0.833848
vt 0.158898 0.833848
vt 0.158898 0.789077
vt 0.848164 0.789077
vt 0.158898 0.789078
vt 0.848165 0.789077
vt 0.848164 0.833847
vt 0.158898 0.833848
vt 0.126833 0.873167
vt 0.873167 0.873167
vt 0.873167 0.126832
vt 0.981329 0.981328
vt 0.126833 0.126832
vt 0.981328 0.018672
vt 0.018671 0.018672
vt 0.018672 0.981328
vn 0.000000 1.000000 0.000000
vn 0.000000 1.000000 0.000000
vn 0.000000 1.000000 0.000000
vn 0.000000 1.000000 0.000000
vn 0.000000 -1.000000 0.000000
vn 0.000000 -1.000000 0.000000
vn 0.000000 -1.000000 0.000000
vn 0.000000 -1.000000 0.000000
vn 0.000000 1.000000 0.000000
vn 0.000000 1.000000 0.000000
vn 0.000000 1.000000 0.000000
vn 0.000000 1.000000 0.000000
vn 0.000000 1.000000 0.000000
vn 0.000000 1.000000 0.000000
vn 0.000000 1.000000 0.000000
vn 0.000000 1.000000 0.000000
vn 0.000000 1.000000 -0.000000
vn 0.000000 1.000000 -0.000000
vn 0.000000 1.000000 -0.000000
vn 0.000000 1.000000 -0.000000
vn 0.000000 1.000000 0.000000
vn 0.000000 1.000000 0.000000
vn 0.000000 1.000000 0.000000
vn 0.000000 1.000000 0.000000
vn 0.000000 -1.000000 0.000000
vn 0.000000 -1.000000 0.000000
vn 0.000000 -1.000000 0.000000
vn 0.000000 -1.000000 0.000000
vn -0.000000 -1.000000 0.000000
vn -0.000000 -1.000000 0.000000
vn -0.000000 -1.000000 0.000000
vn -0.000000 -1.000000 0.000000
vn 0.000000 -1.000000 -0.000000
vn 0.000000 -1.000000 -0.000000
vn 0.000000 -1.000000 -0.000000
vn 0.000000 -1.000000 -0.000000
vn 0.000000 -1.000000 0.000000
vn 0.000000 -1.000000 0.000000
vn 0.000000 -1.000000 0.000000
vn 0.000000 -1.000000 0.000000
vn 0.000000 0.000000 -1.000000
vn 0.000000 0.000000 -1.000000
vn 0.000000 0.000000 -1.000000
vn 0.000000 0.000000 -1.000000
vn -1.000000 0.000000 0.000000
vn -1.000000 0.000000 0.000000
vn -1.000000 0.000000 0.000000
vn -1.000000 0.000000 0.000000
vn 0.000000 0.000000 1.000000
vn 0.000000 0.000000 1.000000
vn 0.000000 0.000000 1.000000
vn 0.000000 0.000000 1.000000
vn 1.000000 0.000000 0.000000
vn 1.000000 0.000000 0.000000
vn 1.000000 0.000000 0.000000
vn 1.000000 0.000000 0.000000
vn 0.000000 0.000000 1.000000
vn 0.000000 0.000000 1.000000
vn 0.000000 0.000000 1.000000
vn 0.000000 0.000000 1.000000
vn -1.000000 0.000000 0.000000
vn -1.000000 0.000000 0.000000
vn -1.000000 0.000000 0.000000
vn -1.000000 0.000000 0.000000
vn 0.000000 0.000000 -1.000000
vn 0.000000 0.000000 -1.000000
vn 0.000000 0.000000 -1.000000
vn 0.000000 0.000000 -1.000000
vn 1.000000 0.000000 0.000000
vn 1.000000 0.000000 0.000000
vn 1.000000 0.000000 0.000000
vn 1.000000 0.000000 0.000000
s off
g pCube1
usemtl initialShadingGroup
f 17/1/1 18/2/2 19/3/3 20/4/4
f 21/5/5 22/6/6 23/7/7 24/8/8
f 3/64/9 4/10/10 10/61/11 9/12/12
f 4/63/13 6/13/14 11/59/15 10/11/16
f 6/62/17 5/15/18 12/58/19 11/14/20
f 5/60/21 3/9/22 9/57/23 12/16/24
f 7/17/25 8/18/26 14/19/27 13/20/28
f 8/18/29 2/21/30 15/22/31 14/19/32
f 2/21/33 1/23/34 16/24/35 15/22/36
f 1/23/37 7/17/38 13/20/39 16/24/40
f 9/41/41 10/42/42 18/43/43 17/44/44
f 10/25/45 11/26/46 19/27/47 18/28/48
f 11/45/49 12/46/50 20/47/51 19/48/52
f 12/29/53 9/30/54 17/31/55 20/32/56
f 13/49/57 14/50/58 22/51/59 21/52/60
f 14/33/61 15/34/62 23/35/63 22/36/64
f 15/53/65 16/54/66 24/55/67 23/56/68
f 16/37/69 13/38/70 21/39/71 24/40/72
g default
v -5.670649 0.973093 -5.670648
v 5.670649 0.973093 -5.670648
v -5.670649 0.973093 5.670648
v 5.670649 0.973093 5.670648
v -5.670649 12.314391 5.670648
v 5.670649 12.314391 5.670648
v -5.670649 12.314391 -5.670648
v 5.670649 12.314391 -5.670648
v -4.396375 2.247366 5.670648
v 4.396375 2.247366 5.670648
v 4.396375 11.040117 5.670648
v -4.396375 11.040117 5.670648
v -4.396375 11.040117 -5.670648
v 4.396375 11.040117 -5.670648
v 4.396375 2.247366 -5.670648
v -4.396375 2.247366 -5.670648
v -4.396375 2.247366 5.099528
v 4.396375 2.247366 5.099528
v 4.396375 11.040117 5.099528
v -4.396375 11.040117 5.099528
v -4.396375 11.040117 -5.099527
v 4.396375 11.040117 -5.099527
v 4.396375 2.247366 -5.099527
v -4.396375 2.247366 -5.099527
vt 0.224217 0.701201
vt 0.224217 0.149636
vt 0.775783 0.149636
vt 0.775783 0.701201
vt 0.775783 0.149636
vt 0.775783 0.701201
vt 0.224217 0.701201
vt 0.224217 0.149636
vt 0.018672 0.981328
vt 0.018671 0.018672
vt 0.126833 0.126832
vt 0.126833 0.873167
vt 0.981328 0.018672
vt 0.873167 0.126832
vt 0.981329 0.981328
vt 0.873167 0.873167
vt 0.981328 0.981328
vt 0.018672 0.981328
vt 0.126833 0.873167
vt 0.873167 0.873167
vt 0.018672 0.018671
vt 0.126833 0.126833
vt 0.981328 0.018671
vt 0.873167 0.126833
vt 0.848164 0.764124
vt 0.158898 0.764124
vt 0.158898 0.719353
vt 0.848165 0.719353
vt 0.158898 0.719353
vt 0.848165 0.719353
vt 0.848165 0.764124
vt 0.158898 0.764124
vt 0.158898 0.719353
vt 0.848165 0.719353
vt 0.848165 0.764124
vt 0.158898 0.764123
vt 0.848164 0.764123
vt 0.158898 0.764123
vt 0.158899 0.719353
vt 0.848165 0.719353
vt 0.848165 0.833848
vt 0.158898 0.833848
vt 0.158898 0.789077
vt 0.848164 0.789077
vt 0.158898 0.789077
vt 0.848165 0.789077
vt 0.848165 0.833847
vt 0.158898 0.833848
vt 0.848165 0.833848
vt 0.158898 0.833848
vt 0.158898 0.789077
vt 0.848164 0.789077
vt 0.158898 0.789078
vt 0.848165 0.789077
vt 0.848164 0.833847
vt 0.158898 0.833848
vt 0.126833 0.873167
vt 0.873167 0.873167
vt 0.873167 0.126832
vt 0.981329 0.981328
vt 0.126833 0.126832
vt 0.981328 0.018672
vt 0.018671 0.018672
vt 0.018672 0.981328
vn 0.000000 0.000000 1.000000
vn 0.000000 0.000000 1.000000
vn 0.000000 0.000000 1.000000
vn 0.000000 0.000000 1.000000
vn 0.000000 -0.000000 -1.000000
vn 0.000000 -0.000000 -1.000000
vn 0.000000 -0.000000 -1.000000
vn 0.000000 -0.000000 -1.000000
vn 0.000000 -0.000000 1.000000
vn 0.000000 -0.000000 1.000000
vn 0.000000 -0.000000 1.000000
vn 0.000000 -0.000000 1.000000
vn 0.000000 0.000000 1.000000
vn 0.000000 0.000000 1.000000
vn 0.000000 0.000000 1.000000
vn 0.000000 0.000000 1.000000
vn 0.000000 0.000000 1.000000
vn 0.000000 0.000000 1.000000
vn 0.000000 0.000000 1.000000
vn 0.000000 0.000000 1.000000
vn 0.000000 0.000000 1.000000
vn 0.000000 0.000000 1.000000
vn 0.000000 0.000000 1.000000
vn 0.000000 0.000000 1.000000
vn 0.000000 -0.000000 -1.000000
vn 0.000000 -0.000000 -1.000000
vn 0.000000 -0.000000 -1.000000
vn 0.000000 -0.000000 -1.000000
vn -0.000000 -0.000000 -1.000000
vn -0.000000 -0.000000 -1.000000
vn -0.000000 -0.000000 -1.000000
vn -0.000000 -0.000000 -1.000000
vn 0.000000 0.000000 -1.000000
vn 0.000000 0.000000 -1.000000
vn 0.000000 0.000000 -1.000000
vn 0.000000 0.000000 -1.000000
vn 0.000000 -0.000000 -1.000000
vn 0.000000 -0.000000 -1.000000
vn 0.000000 -0.000000 -1.000000
vn 0.000000 -0.000000 -1.000000
vn 0.000000 1.000000 -0.000000
vn 0.000000 1.000000 -0.000000
vn 0.000000 1.000000 -0.000000
vn 0.000000 1.000000 -0.000000
vn -1.000000 0.000000 0.000000
vn -1.000000 0.000000 0.000000
vn -1.000000 0.000000 0.000000
vn -1.000000 0.000000 0.000000
vn 0.000000 -1.000000 0.000000
vn 0.000000 -1.000000 0.000000
vn 0.000000 -1.000000 0.000000
vn 0.000000 -1.000000 0.000000
vn 1.000000 0.000000 0.000000
vn 1.000000 0.000000 0.000000
vn 1.000000 0.000000 0.000000
vn 1.000000 0.000000 0.000000
vn 0.000000 -1.000000 0.000000
vn 0.000000 -1.000000 0.000000
vn 0.000000 -1.000000 0.000000
vn 0.000000 -1.000000 0.000000
vn -1.000000 0.000000 0.000000
vn -1.000000 0.000000 0.000000
vn -1.000000 0.000000 0.000000
vn -1.000000 0.000000 0.000000
vn 0.000000 1.000000 -0.000000
vn 0.000000 1.000000 -0.000000
vn 0.000000 1.000000 -0.000000
vn 0.000000 1.000000 -0.000000
vn 1.000000 0.000000 0.000000
vn 1.000000 0.000000 0.000000
vn 1.000000 0.000000 0.000000
vn 1.000000 0.000000 0.000000
s off
g pasted__pCube1 group9
usemtl initialShadingGroup
f 41/65/73 42/66/74 43/67/75 44/68/76
f 45/69/77 46/70/78 47/71/79 48/72/80
f 27/128/81 28/74/82 34/125/83 33/76/84
f 28/127/85 30/77/86 35/123/87 34/75/88
f 30/126/89 29/79/90 36/122/91 35/78/92
f 29/124/93 27/73/94 33/121/95 36/80/96
f 31/81/97 32/82/98 38/83/99 37/84/100
f 32/82/101 26/85/102 39/86/103 38/83/104
f 26/85/105 25/87/106 40/88/107 39/86/108
f 25/87/109 31/81/110 37/84/111 40/88/112
f 33/105/113 34/106/114 42/107/115 41/108/116
f 34/89/117 35/90/118 43/91/119 42/92/120
f 35/109/121 36/110/122 44/111/123 43/112/124
f 36/93/125 33/94/126 41/95/127 44/96/128
f 37/113/129 38/114/130 46/115/131 45/116/132
f 38/97/133 39/98/134 47/99/135 46/100/136
f 39/117/137 40/118/138 48/119/139 47/120/140
f 40/101/141 37/102/142 45/103/143 48/104/144
g default
v -5.670648 0.973093 5.670649
v -5.670648 0.973093 -5.670649
v 5.670648 0.973093 5.670649
v 5.670648 0.973093 -5.670649
v 5.670648 12.314391 5.670649
v 5.670648 12.314391 -5.670649
v -5.670648 12.314391 5.670649
v -5.670648 12.314391 -5.670649
v 5.670648 2.247366 4.396375
v 5.670648 2.247366 -4.396375
v 5.670648 11.040117 -4.396375
v 5.670648 11.040117 4.396375
v -5.670648 11.040117 4.396375
v -5.670648 11.040117 -4.396375
v -5.670648 2.247366 -4.396375
v -5.670648 2.247366 4.396375
v 5.099528 2.247366 4.396375
v 5.099528 2.247366 -4.396375
v 5.099528 11.040117 -4.396375
v 5.099528 11.040117 4.396375
v -5.099527 11.040117 4.396375
v -5.099527 11.040117 -4.396375
v -5.099527 2.247366 -4.396375
v -5.099527 2.247366 4.396375
vt 0.224217 0.701201
vt 0.224217 0.149636
vt 0.775783 0.149636
vt 0.775783 0.701201
vt 0.775783 0.149636
vt 0.775783 0.701201
vt 0.224217 0.701201
vt 0.224217 0.149636
vt 0.018672 0.981328
vt 0.018671 0.018672
vt 0.126833 0.126832
vt 0.126833 0.873167
vt 0.981328 0.018672
vt 0.873167 0.126832
vt 0.981329 0.981328
vt 0.873167 0.873167
vt 0.981328 0.981328
vt 0.018672 0.981328
vt 0.126833 0.873167
vt 0.873167 0.873167
vt 0.018672 0.018671
vt 0.126833 0.126833
vt 0.981328 0.018671
vt 0.873167 0.126833
vt 0.848164 0.764124
vt 0.158898 0.764124
vt 0.158898 0.719353
vt 0.848165 0.719353
vt 0.158898 0.719353
vt 0.848165 0.719353
vt 0.848165 0.764124
vt 0.158898 0.764124
vt 0.158898 0.719353
vt 0.848165 0.719353
vt 0.848165 0.764124
vt 0.158898 0.764123
vt 0.848164 0.764123
vt 0.158898 0.764123
vt 0.158899 0.719353
vt 0.848165 0.719353
vt 0.848165 0.833848
vt 0.158898 0.833848
vt 0.158898 0.789077
vt 0.848164 0.789077
vt 0.158898 0.789077
vt 0.848165 0.789077
vt 0.848165 0.833847
vt 0.158898 0.833848
vt 0.848165 0.833848
vt 0.158898 0.833848
vt 0.158898 0.789077
vt 0.848164 0.789077
vt 0.158898 0.789078
vt 0.848165 0.789077
vt 0.848164 0.833847
vt 0.158898 0.833848
vt 0.126833 0.873167
vt 0.873167 0.873167
vt 0.873167 0.126832
vt 0.981329 0.981328
vt 0.126833 0.126832
vt 0.981328 0.018672
vt 0.018671 0.018672
vt 0.018672 0.981328
vn 1.000000 0.000000 0.000000
vn 1.000000 0.000000 0.000000
vn 1.000000 0.000000 0.000000
vn 1.000000 0.000000 0.000000
vn -1.000000 -0.000000 -0.000000
vn -1.000000 -0.000000 -0.000000
vn -1.000000 -0.000000 -0.000000
vn -1.000000 -0.000000 -0.000000
vn 1.000000 -0.000000 0.000000
vn 1.000000 -0.000000 0.000000
vn 1.000000 -0.000000 0.000000
vn 1.000000 -0.000000 0.000000
vn 1.000000 0.000000 0.000000
vn 1.000000 0.000000 0.000000
vn 1.000000 0.000000 0.000000
vn 1.000000 0.000000 0.000000
vn 1.000000 0.000000 0.000000
vn 1.000000 0.000000 0.000000
vn 1.000000 0.000000 0.000000
vn 1.000000 0.000000 0.000000
vn 1.000000 0.000000 0.000000
vn 1.000000 0.000000 0.000000
vn 1.000000 0.000000 0.000000
vn 1.000000 0.000000 0.000000
vn -1.000000 -0.000000 -0.000000
vn -1.000000 -0.000000 -0.000000
vn -1.000000 -0.000000 -0.000000
vn -1.000000 -0.000000 -0.000000
vn -1.000000 -0.000000 0.000000
vn -1.000000 -0.000000 0.000000
vn -1.000000 -0.000000 0.000000
vn -1.000000 -0.000000 0.000000
vn -1.000000 0.000000 -0.000000
vn -1.000000 0.000000 -0.000000
vn -1.000000 0.000000 -0.000000
vn -1.000000 0.000000 -0.000000
vn -1.000000 -0.000000 -0.000000
vn -1.000000 -0.000000 -0.000000
vn -1.000000 -0.000000 -0.000000
vn -1.000000 -0.000000 -0.000000
vn -0.000000 1.000000 -0.000000
vn -0.000000 1.000000 -0.000000
vn -0.000000 1.000000 -0.000000
vn -0.000000 1.000000 -0.000000
vn -0.000000 0.000000 1.000000
vn -0.000000 0.000000 1.000000
vn -0.000000 0.000000 1.000000
vn -0.000000 0.000000 1.000000
vn 0.000000 -1.000000 0.000000
vn 0.000000 -1.000000 0.000000
vn 0.000000 -1.000000 0.000000
vn 0.000000 -1.000000 0.000000
vn 0.000000 0.000000 -1.000000
vn 0.000000 0.000000 -1.000000
vn 0.000000 0.000000 -1.000000
vn 0.000000 0.000000 -1.000000
vn 0.000000 -1.000000 0.000000
vn 0.000000 -1.000000 0.000000
vn 0.000000 -1.000000 0.000000
vn 0.000000 -1.000000 0.000000
vn -0.000000 0.000000 1.000000
vn -0.000000 0.000000 1.000000
vn -0.000000 0.000000 1.000000
vn -0.000000 0.000000 1.000000
vn -0.000000 1.000000 -0.000000
vn -0.000000 1.000000 -0.000000
vn -0.000000 1.000000 -0.000000
vn -0.000000 1.000000 -0.000000
vn 0.000000 0.000000 -1.000000
vn 0.000000 0.000000 -1.000000
vn 0.000000 0.000000 -1.000000
vn 0.000000 0.000000 -1.000000
s off
g pasted__pasted__pCube1 pasted__group9 group10
usemtl initialShadingGroup
f 65/129/145 66/130/146 67/131/147 68/132/148
f 69/133/149 70/134/150 71/135/151 72/136/152
f 51/192/153 52/138/154 58/189/155 57/140/156
f 52/191/157 54/141/158 59/187/159 58/139/160
f 54/190/161 53/143/162 60/186/163 59/142/164
f 53/188/165 51/137/166 57/185/167 60/144/168
f 55/145/169 56/146/170 62/147/171 61/148/172
f 56/146/173 50/149/174 63/150/175 62/147/176
f 50/149/177 49/151/178 64/152/179 63/150/180
f 49/151/181 55/145/182 61/148/183 64/152/184
f 57/169/185 58/170/186 66/171/187 65/172/188
f 58/153/189 59/154/190 67/155/191 66/156/192
f 59/173/193 60/174/194 68/175/195 67/176/196
f 60/157/197 57/158/198 65/159/199 68/160/200
f 61/177/201 62/178/202 70/179/203 69/180/204
f 62/161/205 63/162/206 71/163/207 70/164/208
f 63/181/209 64/182/210 72/183/211 71/184/212
f 64/165/213 61/166/214 69/167/215 72/168/216
